# xmcd CD database file
#
# Track frame offsets:
#	150
#	7520
#	14402
#	22101
#	26902
#	30333
#	41211
#	54147
#	62738
#	72259
#	77211
#	88871
#
# Disc length: 1241 seconds
#
# Revision: 1
# Processed by: cddbd v1.5.2PL0 Copyright (c) Steve Scherf et al.
# Submitted via: CDex 1.70beta2
#
DISCID=8f04d70c
DTITLE=Merle Haggard - The Fugitive [Live]
DYEAR=2003
DGENRE=Country
TTITLE0=The Fugitive [Live]
TTITLE1=Sing Me Back Home [Live]
TTITLE2=Branded Man [Live]
TTITLE3=Swingin' Doors [Live]
TTITLE4=I'm Movin' On [Live]
TTITLE5=Silver Wings [Live]
TTITLE6=Blue Yodel [Live]
TTITLE7=Hobo Bill [Live]
TTITLE8=I Can't Be Myself [Live]
TTITLE9=Love Is Gonna Live Here Again [Live]
TTITLE10=A Soldier's Letter [Live]
TTITLE11=Orange Blossom Special [Live]
EXTD=CDDBSort:haggard_merle,fugitive - YEAR: 2003
EXTT0=
EXTT1=
EXTT2=
EXTT3=
EXTT4=
EXTT5=
EXTT6=
EXTT7=
EXTT8=
EXTT9=
EXTT10=
EXTT11=
PLAYORDER=
